<?xml version="1.0" encoding="UTF-8"?>
<svg version="1.1" xmlns="http://www.w3.org/2000/svg" width="512" height="512">
<path d="M0 0 C6.97073044 5.34814081 14.09032576 11.56743083 17.05078125 20.01953125 C17.58219727 19.8587207 18.11361328 19.69791016 18.66113281 19.53222656 C38.89316494 13.45828458 59.75093858 8.04511861 81.01171875 7.9609375 C82.5579895 7.94099731 82.5579895 7.94099731 84.13549805 7.9206543 C86.16041215 7.90360608 88.18597646 7.92045604 90.21020508 7.97583008 C95.56898678 7.99018787 95.56898678 7.99018787 99.95825195 5.25317383 C101.56907605 3.14021434 101.56907605 3.14021434 102.84375 0.94018555 C104.74780536 -2.08958863 106.66579552 -2.98488471 110.05078125 -3.98046875 C114.72923397 -4.24178773 118.7079237 -3.64523553 122.55078125 -0.85546875 C125.51626377 2.55483615 125.59509725 4.61803803 126.05078125 9.01953125 C127.29988281 9.16648437 128.54898437 9.3134375 129.8359375 9.46484375 C146.01104282 11.50125528 161.41258741 15.51762696 177.05078125 20.01953125 C177.39109375 18.96378906 177.39109375 18.96378906 177.73828125 17.88671875 C179.31842829 14.43484992 181.48848839 11.8897822 184.05078125 9.14453125 C184.5420752 8.61714355 185.03336914 8.08975586 185.53955078 7.54638672 C198.91745325 -6.45074363 217.66636126 -13.84438656 236.85131836 -14.50415039 C256.85456365 -14.75168063 273.09096823 -9.14743153 287.82421875 4.77124023 C306.94009496 23.46042278 317.6484815 51.90700265 318.25390625 78.51953125 C318.42350359 94.84653702 318.17263533 109.37821919 311.8203125 124.65234375 C310.69747188 128.1063611 310.36492741 130.46183626 311.86645508 133.87207031 C313.04877574 136.136663 314.29208294 138.35900578 315.55078125 140.58203125 C326.38422339 160.50003627 333.83890587 182.18396119 338.36328125 204.39453125 C338.51055664 205.11705078 338.65783203 205.83957031 338.80957031 206.58398438 C341.70768658 221.93653474 342.4240596 237.11813289 342.36328125 252.70703125 C342.36054703 254.16378265 342.36054703 254.16378265 342.35775757 255.64996338 C342.3135106 269.64728351 341.91714908 283.27494796 339.05078125 297.01953125 C338.8791748 297.90044434 338.70756836 298.78135742 338.53076172 299.68896484 C335.81305364 313.5155172 331.78250307 326.75758359 327.05078125 340.01953125 C327.79481201 340.06779053 328.53884277 340.1160498 329.30541992 340.16577148 C330.28744385 340.23997314 331.26946777 340.3141748 332.28125 340.390625 C333.25215576 340.45950928 334.22306152 340.52839355 335.22338867 340.59936523 C341.61012181 341.54846874 345.62938604 345.17917556 349.48828125 350.14453125 C352.66150813 354.58877816 353.18011831 357.98798799 353.21191406 363.4152832 C353.21687897 364.05957275 353.22184387 364.7038623 353.22695923 365.36767578 C353.24155549 367.49773226 353.24837902 369.62771424 353.25390625 371.7578125 C353.25966035 373.24130759 353.26541805 374.72480267 353.2711792 376.20829773 C353.28168235 379.31945135 353.28752931 382.43057919 353.29101562 385.54174805 C353.29649512 389.51966018 353.32051407 393.49722912 353.34898758 397.47503376 C353.36765396 400.54032878 353.3728217 403.60554185 353.3743515 406.6708889 C353.37737018 408.13685161 353.38537218 409.60281315 353.39853668 411.06871986 C353.41567969 413.12460704 353.41369737 415.17966515 353.40722656 417.2355957 C353.41087219 418.40347122 353.41451782 419.57134674 353.41827393 420.77461243 C352.70437658 427.07824541 349.28452396 432.29084054 344.48291016 436.3425293 C337.35056377 441.13393453 329.84839813 440.56323736 321.61795044 440.33602905 C318.99932032 440.26819825 316.38285207 440.23956698 313.76342773 440.22192383 C306.32289303 440.16783139 298.88435106 440.06856937 291.44580078 439.88623047 C267.05398881 438.13093438 267.05398881 438.13093438 245.49609375 447.234375 C243.79205507 448.88746119 242.19831589 450.57977671 240.63780212 452.36834717 C237.80294391 455.31781862 234.36730334 457.40587337 230.92578125 459.58203125 C230.15451904 460.08202637 229.38325684 460.58202148 228.58862305 461.09716797 C202.95686776 476.79814045 175.17392457 488.3231502 145.67578125 494.33203125 C144.95326172 494.47930664 144.23074219 494.62658203 143.48632812 494.77832031 C128.27569957 497.64964586 113.18496728 498.42757015 97.73828125 498.39453125 C96.29553329 498.39371552 96.29553329 498.39371552 94.82363892 498.3928833 C70.45325349 498.32980054 47.41664376 495.10376977 24.05078125 488.01953125 C23.22771484 487.77396484 22.40464844 487.52839844 21.55664062 487.27539062 C-7.03515439 478.5575384 -32.84505002 463.51975202 -56.32788086 445.27124023 C-56.86292236 444.85817627 -57.39796387 444.4451123 -57.94921875 444.01953125 C-58.75020241 443.24873734 -58.75020241 443.24873734 -59.56736755 442.46237183 C-62.87906007 440.45626651 -65.92499613 440.62629532 -69.68017578 440.68237305 C-70.84201637 440.68154221 -70.84201637 440.68154221 -72.02732849 440.68069458 C-73.7073507 440.68095422 -75.38738198 440.68782406 -77.06735611 440.70053673 C-79.7338625 440.71893513 -82.39958426 440.71623854 -85.06613159 440.70747375 C-92.64674944 440.68568416 -100.22706845 440.69644546 -107.80761719 440.73461914 C-112.4484963 440.75650839 -117.08860574 440.74908641 -121.72945786 440.72416115 C-123.49075515 440.72058502 -125.25211403 440.72813598 -127.01330948 440.74741173 C-137.00375318 440.85457186 -144.97894154 440.90953892 -152.94921875 434.01953125 C-157.83569955 429.01088843 -159.19414846 424.33674951 -159.23974609 417.4284668 C-159.25888565 415.45568001 -159.25888565 415.45568001 -159.27841187 413.44303894 C-159.28146998 412.0141108 -159.2836975 410.58518067 -159.28515625 409.15625 C-159.29158921 407.68040337 -159.29831794 406.20455799 -159.30532837 404.72871399 C-159.31728617 401.63787889 -159.32101082 398.54715542 -159.31982422 395.45629883 C-159.31962128 391.51212378 -159.34690358 387.56867126 -159.38136864 383.62466717 C-159.40370153 380.57642892 -159.4076598 377.52836269 -159.40660477 374.48005104 C-159.40895188 373.02689948 -159.41772496 371.57374254 -159.4332695 370.12067223 C-159.52065677 361.10708415 -159.22126987 354.3102223 -153.34375 347.03125 C-147.11349353 341.81629458 -141.06382422 339.80997185 -132.94921875 340.01953125 C-133.16537842 339.41818359 -133.38153809 338.81683594 -133.60424805 338.19726562 C-137.65905173 326.79858245 -141.36311762 315.44015183 -143.82421875 303.58203125 C-144.01459717 302.67453125 -144.20497559 301.76703125 -144.40112305 300.83203125 C-147.51081921 285.02639977 -148.32602282 269.4652186 -148.26171875 253.39453125 C-148.2595636 252.42397797 -148.25740845 251.45342468 -148.25518799 250.45346069 C-148.20415215 236.12522227 -147.85680313 222.09767343 -144.94921875 208.01953125 C-144.75054199 207.03645996 -144.55186523 206.05338867 -144.34716797 205.04052734 C-132.36707993 147.43739243 -132.36707993 147.43739243 -116.94921875 132.01953125 C-117.45021242 126.61993281 -118.83381914 121.67957916 -120.44921875 116.51953125 C-126.86057065 96.03984146 -125.66856917 72.57535602 -119.94921875 52.01953125 C-119.7672998 51.34825195 -119.58538086 50.67697266 -119.39794922 49.98535156 C-114.98529241 34.17234549 -107.55439251 20.45378971 -96.94921875 8.01953125 C-96.38847656 7.34535156 -95.82773438 6.67117187 -95.25 5.9765625 C-70.48873711 -21.27953796 -28.6410411 -19.23312297 0 0 Z " fill="#1E2F79" transform="translate(158.94921875,13.98046875)"/>
<path d="M0 0 C1.0817493 -0.0061579 1.0817493 -0.0061579 2.18535212 -0.0124402 C4.61464015 -0.0237966 7.043702 -0.02086379 9.47301197 -0.01802826 C11.22721757 -0.02319461 12.98142082 -0.02922067 14.7356208 -0.03603506 C19.56629016 -0.05219287 24.39690012 -0.05575519 29.2275933 -0.05723 C34.43362233 -0.06092803 39.63962042 -0.07602119 44.8456316 -0.08950043 C56.23406129 -0.11668093 67.62247691 -0.12871871 79.01093364 -0.13752174 C86.12014074 -0.14304435 93.22934238 -0.15151866 100.3385458 -0.16053009 C120.01658474 -0.18491743 139.69461931 -0.20551554 159.37267303 -0.21228027 C160.63247089 -0.21271941 161.89226874 -0.21315854 163.19024228 -0.21361098 C164.45307859 -0.21404753 165.7159149 -0.21448409 167.01701897 -0.21493387 C169.57606518 -0.21582081 172.13511139 -0.21671394 174.6941576 -0.21761322 C175.96353669 -0.21805608 177.23291579 -0.21849894 178.54076091 -0.21895522 C199.11097918 -0.22685187 219.68105576 -0.26176105 240.25121929 -0.30833226 C261.36341673 -0.35574535 282.47554306 -0.38068334 303.5877946 -0.38301611 C315.44433353 -0.38485044 327.30068789 -0.39637578 339.15717602 -0.43265533 C349.25312523 -0.46343863 359.34883285 -0.4737095 369.44482007 -0.45717913 C374.59639779 -0.44935921 379.74748884 -0.4512577 384.89900684 -0.47929382 C389.61633112 -0.50473222 394.3328021 -0.50241347 399.05012486 -0.4781124 C400.75541125 -0.47419133 402.46075768 -0.48038868 404.16595968 -0.49780113 C413.39803476 -0.58609452 420.81509722 -0.49054868 427.87994862 6.26285553 C433.08695996 11.60689348 435.22207836 17.37877692 435.21983814 24.69716644 C435.20435429 25.47036728 435.18887043 26.24356812 435.17291737 27.04019928 C435.16867252 27.85154831 435.16442768 28.66289734 435.16005421 29.4988327 C435.14338729 32.06635809 435.1057591 34.63307117 435.06744862 37.20035553 C435.05238622 38.95099516 435.03870054 40.70164721 435.02643299 42.45230865 C434.9935233 46.72279945 434.94182587 50.99269022 434.87994862 55.26285553 C436.53800526 55.24907867 436.53800526 55.24907867 438.22955799 55.2350235 C445.3921922 55.28963427 450.82883953 57.71637163 456.27447987 62.27457428 C462.61436269 70.12615666 462.45871168 77.86673082 462.37604237 87.48941803 C462.37619759 88.96576763 462.37769048 90.44211763 462.38045216 91.91846466 C462.38183074 94.9999181 462.36936684 98.08090302 462.34650135 101.16226959 C462.31806769 105.10089159 462.32087459 109.03873911 462.33359146 112.9774189 C462.34056268 116.02131455 462.33274384 119.0650328 462.32033443 122.10890579 C462.31583744 123.56088708 462.31546773 125.01288752 462.31939983 126.46487045 C462.32232722 128.49603436 462.30359085 130.52719414 462.28400135 132.55826569 C462.27859837 133.71106018 462.27319538 134.86385468 462.26762867 136.05158234 C461.50918725 142.33398599 458.10374145 147.5425607 453.31207752 151.58585358 C446.17973114 156.37725881 438.6775655 155.80656164 430.44711781 155.57935333 C427.82848768 155.51152253 425.21201944 155.48289126 422.5925951 155.46524811 C415.1520604 155.41115567 407.71351843 155.31189365 400.27496815 155.12955475 C375.88315618 153.37425866 375.88315618 153.37425866 354.32526112 162.47769928 C352.62122243 164.13078547 351.02748326 165.82310098 349.46696949 167.61167145 C346.63211128 170.5611429 343.19647071 172.64919765 339.75494862 174.82535553 C338.98368641 175.32535065 338.2124242 175.82534576 337.41779041 176.34049225 C311.78603513 192.04146473 284.00309194 203.56647448 254.50494862 209.57535553 C253.78242908 209.72263092 253.05990955 209.86990631 252.31549549 210.02164459 C237.10486694 212.89297014 222.01413465 213.67089443 206.56744862 213.63785553 C205.12470066 213.63703979 205.12470066 213.63703979 203.65280628 213.63620758 C179.28242085 213.57312482 156.24581113 210.34709405 132.87994862 203.26285553 C132.05688221 203.01728912 131.2338158 202.77172272 130.38580799 202.5187149 C101.79401297 193.80086268 75.98411735 178.7630763 52.50128651 160.51456451 C51.966245 160.10150055 51.4312035 159.68843658 50.87994862 159.26285553 C50.07896496 158.49206161 50.07896496 158.49206161 49.26179981 157.70569611 C45.9501073 155.69959079 42.90417124 155.8696196 39.14899158 155.92569733 C37.98715099 155.92486649 37.98715099 155.92486649 36.80183887 155.92401886 C35.12181667 155.9242785 33.44178538 155.93114834 31.76181126 155.94386101 C29.09530486 155.96225941 26.42958311 155.95956282 23.76303577 155.95079803 C16.18241793 155.92900844 8.60209891 155.93976974 1.02155018 155.97794342 C-3.61932894 155.99983267 -8.25943837 155.99241069 -12.90029049 155.96748543 C-14.66158778 155.9639093 -16.42294667 155.97146026 -18.18414211 155.99073601 C-28.17458581 156.09789614 -36.14977418 156.1528632 -44.12005138 149.26285553 C-49.00653218 144.25421271 -50.36498109 139.58007379 -50.41057873 132.67179108 C-50.42333843 131.35659988 -50.43609814 130.04140869 -50.4492445 128.68636322 C-50.45230262 127.25743508 -50.45453013 125.82850495 -50.45598888 124.39957428 C-50.46242184 122.92372765 -50.46915057 121.44788227 -50.476161 119.97203827 C-50.48811881 116.88120317 -50.49184345 113.7904797 -50.49065685 110.69962311 C-50.49045391 106.75544806 -50.51773622 102.81199554 -50.55220127 98.86799145 C-50.57453417 95.8197532 -50.57849243 92.77168697 -50.5774374 89.72337532 C-50.57978452 88.27022376 -50.5885576 86.81706682 -50.60410213 85.36399651 C-50.6914894 76.35040843 -50.39210251 69.55354658 -44.51458263 62.27457428 C-37.82992521 56.67926843 -31.75150412 55.19113646 -23.12005138 55.26285553 C-23.14623547 54.19438385 -23.17241955 53.12591217 -23.19939709 52.02506256 C-23.29066611 48.01828128 -23.34757556 44.01158965 -23.39470959 40.00406647 C-23.41968077 38.27767173 -23.45367046 36.55138082 -23.49724865 34.82535553 C-23.96399459 15.84801458 -23.96399459 15.84801458 -18.12005138 8.26285553 C-12.52592216 2.44733059 -8.19946988 0.01587436 0 0 Z " fill="#FDEF56" transform="translate(50.12005138397217,298.73714447021484)"/>
<path d="M0 0 C85.8 0 171.6 0 260 0 C260.33 12.54 260.66 25.08 261 38 C266.58356041 49.28978301 266.58356041 49.28978301 276.73046875 54.40625 C280.75991024 55.46042402 284.8529742 55.75355789 289 56 C277.10711934 68.65099258 261.2326467 77.94174366 246 86 C244.71778564 86.6820752 244.71778564 86.6820752 243.40966797 87.37792969 C208.30845948 105.76826037 170.18295618 114.45947678 130.6875 114.375 C129.24475204 114.37418427 129.24475204 114.37418427 127.77285767 114.37335205 C103.40247224 114.31026929 80.36586251 111.08423852 57 104 C56.17693359 103.75443359 55.35386719 103.50886719 54.50585938 103.25585938 C25.45300044 94.39742532 -7.8188689 78.50826964 -29 56 C-28.0821875 55.91363281 -27.164375 55.82726562 -26.21875 55.73828125 C-15.68751493 54.58451741 -15.68751493 54.58451741 -7 49 C4.44107344 34.28183518 -0.56770939 21.57295666 0 0 Z " fill="#1D2E78" transform="translate(126,398)"/>
<path d="M0 0 C2.47842033 1.90151391 4.77578414 3.88004841 7.05078125 6.01953125 C7.74429688 6.66019531 8.4378125 7.30085938 9.15234375 7.9609375 C15.64572136 14.56713442 19.40492568 22.61848647 23.05078125 31.01953125 C23.5096875 32.07011719 23.96859375 33.12070312 24.44140625 34.203125 C33.0448062 57.49895092 24.79607742 85.69191027 15.16796875 107.34765625 C3.67395308 132.02131993 -15.25513433 152.78625485 -41.09179688 162.36767578 C-48.8028422 165.07383917 -55.78567579 166.4277084 -63.94921875 166.01953125 C-63.61921875 167.07140625 -63.28921875 168.12328125 -62.94921875 169.20703125 C-61.22246052 176.17617776 -60.85686711 183.74247632 -63.13671875 190.58203125 C-65.29413274 193.4833811 -66.74395299 195.27753899 -69.94921875 197.01953125 C-73.02829623 197.04540585 -75.9349526 196.62369789 -78.94921875 196.01953125 C-79.09617188 196.61894531 -79.243125 197.21835938 -79.39453125 197.8359375 C-80.67968013 203.0282344 -81.99425305 208.20834307 -83.37890625 213.375 C-86.61081262 225.47786902 -89.31183836 237.47480166 -91.4296875 249.8203125 C-92.3320453 254.53262547 -93.52968564 257.59999814 -96.94921875 261.01953125 C-100.42185148 262.75584761 -104.16114888 262.62143527 -107.94921875 262.01953125 C-110.70491322 259.8379398 -112.38510622 258.14775631 -113.94921875 255.01953125 C-114.66075828 246.7872061 -113.24834187 239.08192722 -111.44921875 231.08203125 C-111.18802246 229.88868164 -110.92682617 228.69533203 -110.65771484 227.46582031 C-107.66299882 214.15558507 -103.87633179 201.08190725 -99.94921875 188.01953125 C-100.57441406 187.88289062 -101.19960937 187.74625 -101.84375 187.60546875 C-104.36238357 186.90455032 -105.31975049 186.03696815 -106.94921875 184.01953125 C-108.2197546 180.2079237 -108.78163063 176.94960702 -107.94921875 173.01953125 C-105.99026917 169.66780249 -103.57015243 166.8715693 -100.94921875 164.01953125 C-100.09263672 163.07787109 -100.09263672 163.07787109 -99.21875 162.1171875 C-97.85792983 160.68916633 -96.41034708 159.34474066 -94.94921875 158.01953125 C-94.28921875 158.01953125 -93.62921875 158.01953125 -92.94921875 158.01953125 C-93.62984375 157.33890625 -94.31046875 156.65828125 -95.01171875 155.95703125 C-95.69814453 155.26480469 -95.69814453 155.26480469 -96.3984375 154.55859375 C-97.44815147 153.51681212 -98.51394242 152.49102502 -99.59375 151.48046875 C-105.8295503 145.54027072 -111.92230874 138.57759573 -113.94921875 130.01953125 C-114.60921875 130.01953125 -115.26921875 130.01953125 -115.94921875 130.01953125 C-116.91745838 127.25182742 -117.87382192 124.48086386 -118.82421875 121.70703125 C-119.09363281 120.94068359 -119.36304688 120.17433594 -119.640625 119.38476562 C-126.90742248 98.0274706 -125.9500413 73.58699045 -119.94921875 52.01953125 C-119.7672998 51.34825195 -119.58538086 50.67697266 -119.39794922 49.98535156 C-114.98529241 34.17234549 -107.55439251 20.45378971 -96.94921875 8.01953125 C-96.10810547 7.00826172 -96.10810547 7.00826172 -95.25 5.9765625 C-70.48873711 -21.27953796 -28.6410411 -19.23312297 0 0 Z " fill="#27A5FE" transform="translate(158.94921875,13.98046875)"/>
<path d="M0 0 C1.09092453 -0.00274933 2.18184906 -0.00549866 3.30583191 -0.0083313 C5.09362816 0.00245453 5.09362816 0.00245453 6.9175415 0.01345825 C8.80573357 0.01302017 8.80573357 0.01302017 10.73207092 0.01257324 C14.18012839 0.01199956 17.62804662 0.02375627 21.07607174 0.03772116 C24.68087495 0.050226 28.28568137 0.05139882 31.89050293 0.05377197 C38.71505739 0.05998747 45.53954775 0.07639922 52.36407399 0.09647095 C60.13426382 0.11882779 67.90445671 0.12982284 75.6746707 0.13986182 C91.65703194 0.16076539 107.63932924 0.19594271 123.62164307 0.24050903 C123.38369019 1.15509888 123.38369019 1.15509888 123.14093018 2.08816528 C122.16431491 6.13604502 121.89630313 10.13024939 122.62164307 14.24050903 C125.23541531 16.56731154 125.23541531 16.56731154 128.62164307 18.24050903 C133.71087396 23.37653745 135.78603263 26.59264462 135.93414307 33.92800903 C135.87077551 40.13169241 135.53120962 43.42873482 131.62164307 48.24050903 C128.50241654 51.2817549 125.24479814 53.82507232 121.62164307 56.24050903 C122.01021484 56.65413696 122.39878662 57.06776489 122.7991333 57.493927 C124.55486822 59.36555462 126.3070389 61.24048237 128.05914307 63.11550903 C128.9766333 64.09197388 128.9766333 64.09197388 129.91265869 65.08816528 C130.49595947 65.7133606 131.07926025 66.33855591 131.68023682 66.98269653 C132.48932495 67.84677124 132.48932495 67.84677124 133.3147583 68.728302 C135.40360729 71.14532622 135.63046709 72.33580847 135.93414307 75.61550903 C135.62164307 79.24050903 135.62164307 79.24050903 134.05914307 81.61550903 C130.95863915 83.68251164 128.28351037 83.82595802 124.62164307 84.24050903 C123.43857579 86.60664359 123.48809699 88.10831639 123.49664307 90.74050903 C123.49406494 91.53457153 123.49148682 92.32863403 123.48883057 93.14675903 C123.48886311 95.29969438 123.48886311 95.29969438 124.62164307 97.24050903 C230.05664307 97.73550903 230.05664307 97.73550903 337.62164307 98.24050903 C337.62164307 98.57050903 337.62164307 98.90050903 337.62164307 99.24050903 C251.82164307 99.24050903 166.02164307 99.24050903 77.62164307 99.24050903 C77.62164307 111.78050903 77.62164307 124.32050903 77.62164307 137.24050903 C70.71863255 151.04653006 70.71863255 151.04653006 60.85145187 154.61637688 C57.08285047 155.67122306 53.41092994 155.68286197 49.51861572 155.67630005 C48.64593552 155.68637589 47.77325531 155.69645172 46.87413025 155.70683289 C44.01118899 155.73515127 41.14877785 155.74118098 38.28570557 155.74441528 C36.28085113 155.75406667 34.27599878 155.7641599 32.27114868 155.77467346 C28.07673242 155.79259386 23.88250113 155.79819861 19.68804932 155.79641724 C14.33262059 155.79611241 8.9783855 155.83708479 3.62323952 155.88873386 C-0.51540499 155.92220649 -4.65376409 155.92817151 -8.79253006 155.92658806 C-10.76597843 155.93011087 -12.73943555 155.94328284 -14.71274948 155.96658516 C-34.67653803 156.18029568 -34.67653803 156.18029568 -42.37835693 149.24050903 C-47.26483773 144.23186622 -48.62328664 139.55772729 -48.66888428 132.64944458 C-48.68164398 131.33425339 -48.69440369 130.01906219 -48.70755005 128.66401672 C-48.71060817 127.23508858 -48.71283568 125.80615845 -48.71429443 124.37722778 C-48.72072739 122.90138115 -48.72745612 121.42553578 -48.73446655 119.94969177 C-48.74642436 116.85885667 -48.750149 113.7681332 -48.7489624 110.67727661 C-48.74875946 106.73310156 -48.77604177 102.78964904 -48.81050682 98.84564495 C-48.83283972 95.7974067 -48.83679798 92.74934048 -48.83574295 89.70102882 C-48.83809007 88.24787726 -48.84686315 86.79472032 -48.86240768 85.34165001 C-48.94979495 76.32806193 -48.65040806 69.53120008 -42.77288818 62.25222778 C-36.08823076 56.65692194 -30.00980967 55.16878997 -21.37835693 55.24050903 C-21.40454102 54.17203735 -21.4307251 53.10356567 -21.45770264 52.00271606 C-21.54897166 47.99593479 -21.60588111 43.98924316 -21.65301514 39.98171997 C-21.67798632 38.25532523 -21.71197601 36.52903432 -21.7555542 34.80300903 C-22.22230014 15.82566809 -22.22230014 15.82566809 -16.37835693 8.24050903 C-11.51620807 3.18593363 -7.19255999 -0.01399331 0 0 Z " fill="#FCC043" transform="translate(48.37835693359375,298.7594909667969)"/>
<path d="M0 0 C22.39500929 17.77886628 32.38892457 42.67050992 37.59375 70.1328125 C39.87256968 91.82542287 37.88854612 111.76416431 30 132 C29.34 132 28.68 132 28 132 C27.75378906 132.86882812 27.50757813 133.73765625 27.25390625 134.6328125 C23.69610292 144.18678903 15.80511441 151.72638558 8 158 C11.81955486 162.47167398 15.67225287 166.90767485 19.58203125 171.30078125 C22.1810351 174.41529 22.29719695 176.94484913 22.1953125 180.9765625 C21.88351409 184.20679403 21.21905972 185.58514089 19 188 C12.98077674 192.20390196 5.74820497 194.20170712 -1.1875 196.375 C-2.0427124 196.65013428 -2.8979248 196.92526855 -3.77905273 197.20874023 C-8.85001918 198.72604116 -12.75030644 199.45118918 -18 198 C-20.71243111 195.91398235 -22.47040746 193.05918508 -24 190 C-24.42936942 182.39117444 -24.32971455 175.28035798 -22 168 C-23.03125 168.061875 -24.0625 168.12375 -25.125 168.1875 C-42.46964068 168.03535403 -57.83003054 159.70445256 -71 149 C-71.81597656 148.35933594 -72.63195312 147.71867188 -73.47265625 147.05859375 C-90.84352262 132.55075448 -100.91612384 112.01649982 -108 91 C-108.3403125 90.02933594 -108.680625 89.05867188 -109.03125 88.05859375 C-116.24432653 66.16690648 -114.08534679 43.90596535 -104.69140625 23.1875 C-96.07862581 6.95648651 -80.84015001 -2.86444147 -64 -9 C-63.14664063 -9.32226562 -62.29328125 -9.64453125 -61.4140625 -9.9765625 C-40.88146813 -16.41934138 -17.31764091 -12.49411321 0 0 Z " fill="#FC76A5" transform="translate(439,12)"/>
<path d="M0 0 C0.89847656 0.69480469 1.79695313 1.38960938 2.72265625 2.10546875 C6.63436959 5.1203166 9.77497784 5.5 14.66015625 5.5 C19.58939292 4.46597657 22.94753928 1.76218155 26.81347656 -1.36645508 C34.02627205 -7.16690323 40.62588329 -8.73764958 49.8125 -8.625 C50.69873047 -8.61525146 51.58496094 -8.60550293 52.49804688 -8.59545898 C62.534758 -8.32272227 68.12461637 -5.70161756 75.9375 0.5625 C80.66646268 4.25814179 83.74067383 5.93788301 89.765625 5.3046875 C95.47081479 4.01178478 99.44965402 0.72221796 103.98828125 -2.76171875 C112.81053617 -9.21487115 123.44048179 -9.09458869 133.9375 -8.1875 C145.13764462 -5.85135541 153.09426042 0.93280038 159.9375 9.8125 C160.47375 10.740625 161.01 11.66875 161.5625 12.625 C163.83108422 16.23411127 166.69049175 17.50767576 170.75 18.5 C171.471875 18.603125 172.19375 18.70625 172.9375 18.8125 C171.7286665 22.4390005 171.0664277 22.5681769 167.765625 24.23046875 C166.88438965 24.67624268 166.0031543 25.1220166 165.09521484 25.58129883 C164.13566895 26.04947021 163.17612305 26.5176416 162.1875 27 C161.19830566 27.48686279 160.20911133 27.97372559 159.18994141 28.4753418 C139.98725177 37.75933722 119.65386596 44.78267954 98.75 49.0625 C98.01579834 49.21364258 97.28159668 49.36478516 96.52514648 49.52050781 C81.26674356 52.4470031 66.12711092 53.22065745 50.625 53.1875 C49.18225204 53.18668427 49.18225204 53.18668427 47.71035767 53.18585205 C23.33997224 53.12276929 0.30336251 49.89673852 -23.0625 42.8125 C-23.88556641 42.56693359 -24.70863281 42.32136719 -25.55664062 42.06835938 C-41.6219447 37.16992796 -59.04593671 30.15687553 -73.0625 20.8125 C-73.0625 20.1525 -73.0625 19.4925 -73.0625 18.8125 C-71.825 18.4 -70.5875 17.9875 -69.3125 17.5625 C-64.88748266 15.87788813 -62.55521367 13.88420563 -59.7734375 10.0234375 C-53.87945139 1.86010914 -46.84287716 -5.15724396 -36.83203125 -7.76953125 C-22.97704321 -9.86048149 -11.48310207 -8.2743698 0 0 Z " fill="#3DCC8C" transform="translate(206.0625,459.1875)"/>
<path d="M0 0 C10.40547833 -0.13936543 20.8107326 -0.24580587 31.21695614 -0.31087303 C36.0496779 -0.34211125 40.88175851 -0.38444562 45.71411133 -0.45263672 C50.38259188 -0.51809886 55.05045796 -0.55376247 59.71936226 -0.56926346 C61.49552641 -0.58030186 63.27165906 -0.6018576 65.04755974 -0.63438034 C81.84988912 -0.92969286 81.84988912 -0.92969286 88.45314026 4.47006226 C95.76632897 11.70324775 97.3357851 17.93733733 97.46813965 27.98945618 C97.46834106 29.27813095 97.46854248 30.56680573 97.46875 31.89453125 C97.47586475 33.25062875 97.48356563 34.60672329 97.49182129 35.96281433 C97.5052225 38.79796726 97.50685536 41.63284197 97.50097656 44.46801758 C97.49509247 48.0758767 97.525636 51.68238451 97.56609344 55.2899828 C97.59212862 58.08956411 97.5948336 60.88882714 97.59120178 63.6885128 C97.59368682 65.65698537 97.61827203 67.62539089 97.64343262 69.59370422 C97.57713349 78.27124864 96.24257803 85.31290534 90.27380371 91.90705872 C82.57436374 99.33535931 73.56385493 99.46710178 63.41796875 99.46875 C62.1268367 99.47636353 60.83570465 99.48397705 59.50544739 99.49182129 C56.78812922 99.50519347 54.07110142 99.50686496 51.35375977 99.50097656 C47.87190178 99.49504599 44.39142171 99.52583988 40.90983105 99.56609344 C37.57916435 99.59811371 34.24878909 99.59385431 30.91796875 99.59375 C29.66799606 99.61014526 28.41802338 99.62654053 27.13017273 99.64343262 C25.97499649 99.6341272 24.81982025 99.62482178 23.62963867 99.61523438 C22.10363289 99.61831604 22.10363289 99.61831604 20.54679871 99.62145996 C18 99 18 99 16.1686554 96.62438965 C14.89944515 93.77418911 14.65620783 91.91233135 14.75 88.8125 C14.76546875 87.95269531 14.7809375 87.09289062 14.796875 86.20703125 C15 84 15 84 16 82 C15.1028125 81.7215625 15.1028125 81.7215625 14.1875 81.4375 C10.92690911 79.29482599 10.26447227 76.60374596 9 73 C9 72.01 9 71.02 9 70 C0.75 70 -7.5 70 -16 70 C-16.33 71.98 -16.66 73.96 -17 76 C-20.04761905 81.04761905 -20.04761905 81.04761905 -22 83 C-25.3125 83.375 -25.3125 83.375 -29 83 C-31.5 81 -31.5 81 -33 78 C-32.68597806 71.22428225 -30.55921205 65.49428681 -28.10546875 59.21875 C-27.71684158 58.20582886 -27.32821442 57.19290771 -26.92781067 56.14929199 C-26.10741363 54.01634392 -25.28267874 51.88505981 -24.45385742 49.75537109 C-23.19289878 46.51387842 -21.94593469 43.26727305 -20.70117188 40.01953125 C-19.89925627 37.93978828 -19.096548 35.86035073 -18.29296875 33.78125 C-17.92302292 32.81956909 -17.55307709 31.85788818 -17.17192078 30.86706543 C-11.32566228 15.88377485 -11.32566228 15.88377485 -7 13 C-5.34450469 12.61500109 -3.6777567 12.27206865 -2 12 C-2.04125 10.7625 -2.0825 9.525 -2.125 8.25 C-2.2374558 4.87632605 -1.56944853 2.96511729 0 0 Z " fill="#FEF9B2" transform="translate(388,299)"/>
<path d="M0 0 C0.33 0 0.66 0 1 0 C0.98889694 0.75453461 0.97779388 1.50906921 0.96635437 2.28646851 C0.86571381 9.43534209 0.78981494 16.58386695 0.74093914 23.73326683 C0.71496562 27.40793726 0.67979696 31.08201705 0.62280273 34.75634766 C0.56803833 38.30960425 0.53848764 41.86229673 0.52561378 45.41594315 C0.51202724 47.41553628 0.47306596 49.41490589 0.43351746 51.41415405 C0.43084229 60.20159519 1.66722571 67.30270161 7.78520203 73.93539429 C13.43127964 79.28181814 19.4007183 80.30251264 27.02490234 80.22705078 C28.19664505 80.22748886 28.19664505 80.22748886 29.39205933 80.22793579 C31.95680103 80.22654992 34.52124697 80.21102398 37.0859375 80.1953125 C38.87098024 80.19157972 40.65602503 80.188734 42.44107056 80.18673706 C47.12642123 80.17912143 51.8116468 80.15949079 56.49694824 80.1373291 C61.28310453 80.11682599 66.06928115 80.10772581 70.85546875 80.09765625 C80.23703396 80.07624289 89.61850655 80.04213203 99 80 C99.1245596 85.37100984 99.21478702 90.74116011 99.2746582 96.11328125 C99.29964279 97.93667262 99.33364279 99.75996548 99.37719727 101.58300781 C99.85791585 122.23694033 99.85791585 122.23694033 92.62695312 130.58520508 C86.45704504 136.38152815 78.94335937 137.44935615 70.89697266 137.43579102 C70.02429245 137.44586685 69.15161224 137.45594269 68.25248718 137.46632385 C65.38954592 137.49464223 62.52713479 137.50067194 59.6640625 137.50390625 C57.65920807 137.51355764 55.65435571 137.52365087 53.64950562 137.53416443 C49.45508936 137.55208483 45.26085806 137.55768958 41.06640625 137.5559082 C35.71097752 137.55560338 30.35674244 137.59657576 25.00159645 137.64822483 C20.86295195 137.68169746 16.72459284 137.68766247 12.58582687 137.68607903 C10.61237851 137.68960184 8.63892138 137.70277381 6.66560745 137.72607613 C-13.2981811 137.93978665 -13.2981811 137.93978665 -21 131 C-25.8864808 125.99135718 -27.24492971 121.31721826 -27.29052734 114.40893555 C-27.30328705 113.09374435 -27.31604675 111.77855316 -27.32919312 110.42350769 C-27.33225123 108.99457955 -27.33447875 107.56564942 -27.3359375 106.13671875 C-27.34237046 104.66087212 -27.34909919 103.18502674 -27.35610962 101.70918274 C-27.36806742 98.61834764 -27.37179207 95.52762417 -27.37060547 92.43676758 C-27.37040253 88.49259253 -27.39768483 84.54914001 -27.43214989 80.60513592 C-27.45448278 77.55689767 -27.45844105 74.50883144 -27.45738602 71.46051979 C-27.45973313 70.00736823 -27.46850621 68.55421129 -27.48405075 67.10114098 C-27.57143802 58.0875529 -27.27205112 51.29069105 -21.39453125 44.01171875 C-14.61685036 38.33854882 -8.82379359 37 0 37 C0 24.79 0 12.58 0 0 Z " fill="#FDA43D" transform="translate(27,317)"/>
<path d="M0 0 C8.59823742 -0.18782557 14.76441126 1.46206276 21.39453125 7.01171875 C27.73441407 14.86330113 27.57876306 22.60387529 27.49609375 32.2265625 C27.49624898 33.7029121 27.49774187 35.17926211 27.50050354 36.65560913 C27.50188213 39.73706257 27.48941823 42.81804749 27.46655273 45.89941406 C27.43811908 49.83803606 27.44092598 53.77588358 27.45364285 57.71456337 C27.46061407 60.75845902 27.45279522 63.80217727 27.44038582 66.84605026 C27.43588883 68.29803155 27.43551912 69.75003199 27.43945122 71.20201492 C27.4423786 73.23317883 27.42364224 75.26433861 27.40405273 77.29541016 C27.39864975 78.44820465 27.39324677 79.60099915 27.38768005 80.78872681 C26.62699995 87.08967421 23.21308294 92.16112902 18.51768494 96.30967712 C10.27749252 101.99512302 0.13457131 100.70064705 -9.43359375 100.62890625 C-11.43701811 100.62973604 -13.4404424 100.63219956 -15.44386292 100.63621521 C-19.63246273 100.63906579 -23.82052564 100.62444562 -28.0090332 100.59692383 C-33.35639902 100.56286482 -38.70280409 100.5688592 -44.05021572 100.5875864 C-48.18459463 100.59819692 -52.31875318 100.58918147 -56.45311165 100.57420158 C-58.42372036 100.56904753 -60.39435236 100.56946754 -62.36495781 100.57574654 C-84.85653045 100.62051366 -84.85653045 100.62051366 -91.8825531 94.30885315 C-97.91025521 88.02372933 -99.45699901 81.42663333 -99.29296875 73.00390625 C-99.28872391 72.17036118 -99.28447906 71.3368161 -99.28010559 70.47801208 C-99.26343314 67.83916689 -99.22580358 65.20111084 -99.1875 62.5625 C-99.17243833 60.76368297 -99.15875253 58.96485387 -99.14648438 57.16601562 C-99.11356728 52.77704385 -99.06186567 48.38865531 -99 44 C-98.0324881 43.99635437 -97.0649762 43.99270874 -96.06814575 43.98895264 C-86.91762107 43.95189393 -77.76742955 43.89400322 -68.61715889 43.81609726 C-63.91370441 43.77671098 -59.21043468 43.7444793 -54.50683594 43.72900391 C-49.96136249 43.71377876 -45.41639723 43.67923025 -40.87115097 43.63169098 C-39.14340526 43.61693731 -37.41558697 43.60896246 -35.68777847 43.60811615 C-20.90009389 43.87045057 -20.90009389 43.87045057 -8.10842896 37.309021 C-0.97430213 29.82605329 -0.50967219 21.97181084 -0.3125 12.0625 C-0.27833984 10.90169922 -0.24417969 9.74089844 -0.20898438 8.54492188 C-0.12693715 5.69671118 -0.05764464 2.84879161 0 0 Z " fill="#FEC142" transform="translate(485,354)"/>
<path d="M0 0 C1.2550035 1.03563297 2.50524802 2.07706778 3.75 3.125 C4.33265625 3.52976562 4.9153125 3.93453125 5.515625 4.3515625 C17.18523712 12.91979122 20.97808961 28.13613206 23.375 41.63623047 C25.76165808 57.47580889 22.30473812 72.64631378 13.75 86.125 C8.00660566 92.88501707 -0.53851246 98.54430557 -9.59765625 99.328125 C-24.17198586 99.5797681 -35.26465112 93.65404101 -45.796875 83.80078125 C-53.37482652 75.53502203 -58.4902349 65.63422293 -62.25 55.125 C-62.77787109 53.68640625 -62.77787109 53.68640625 -63.31640625 52.21875 C-66.87525184 40.42542069 -66.83621609 27.19334119 -61.25 16.125 C-54.96484432 4.55882593 -45.76899759 -1.89335084 -33.5 -6.1875 C-21.56717781 -8.67049128 -9.92971666 -7.22852937 0 0 Z " fill="#FDA1C7" transform="translate(446.25,20.875)"/>
<path d="M0 0 C3.60819028 2.76176495 6.8390166 5.74138005 10 9 C10.52980469 9.4846875 11.05960937 9.969375 11.60546875 10.46875 C19.03607138 18.62784308 18.73821385 29.69561145 18.34375 40.01171875 C17.32269328 57.14951768 9.08872952 72.94807027 -3 85 C-13.1859466 93.86644009 -23.82402151 96.9406024 -37.1015625 96.37890625 C-41.99070381 95.90370915 -45.14660709 94.99906099 -49 92 C-49.67160156 91.51402344 -50.34320313 91.02804688 -51.03515625 90.52734375 C-60.33252079 83.17634338 -65.22002513 72.59756213 -67 61 C-68.92703512 42.14731095 -64.83451997 22.9438418 -52.8203125 7.87890625 C-38.93199795 -6.45645705 -17.60444902 -10.26532885 0 0 Z " fill="#57D3F9" transform="translate(167,29)"/>
<path d="M0 0 C4.89749284 3.97229912 9.21537533 8.59391884 12.375 14.0625 C14.64358422 17.67161127 17.50299175 18.94517576 21.5625 19.9375 C22.284375 20.040625 23.00625 20.14375 23.75 20.25 C22.5411665 23.8765005 21.8789277 24.0056769 18.578125 25.66796875 C17.69688965 26.11374268 16.8156543 26.5595166 15.90771484 27.01879883 C14.94816895 27.48697021 13.98862305 27.9551416 13 28.4375 C12.01080566 28.92436279 11.02161133 29.41122559 10.00244141 29.9128418 C-12.20384481 40.64899718 -35.88042356 48.36230512 -60.25 52.25 C-61.40483887 52.44311768 -61.40483887 52.44311768 -62.58300781 52.64013672 C-74.42952971 54.49896463 -74.42952971 54.49896463 -78.46484375 51.73046875 C-80.11537378 49.61988879 -81.17222805 47.70021562 -82.25 45.25 C-82.78238281 44.30898438 -83.31476563 43.36796875 -83.86328125 42.3984375 C-86.76923523 35.80069411 -86.15999468 27.37310259 -84.1875 20.5 C-81.54374004 13.7772961 -77.24817207 7.33666668 -71.25 3.25 C-70.69054687 3.73726563 -70.13109375 4.22453125 -69.5546875 4.7265625 C-65.68306313 7.28577183 -61.73501947 6.76420605 -57.25 6.25 C-52.61198736 4.58031545 -49.07270413 1.64914241 -45.19921875 -1.32421875 C-32.39396562 -10.69078667 -12.54876002 -8.74827842 0 0 Z " fill="#94DA75" transform="translate(355.25,457.75)"/>
<path d="M0 0 C1.38155273 -0.00737183 1.38155273 -0.00737183 2.79101562 -0.01489258 C4.23637695 0.02535034 4.23637695 0.02535034 5.7109375 0.06640625 C6.69771484 0.08227783 7.68449219 0.09814941 8.70117188 0.11450195 C17.46082817 0.38878399 24.00246936 2.00932292 31.3984375 6.75390625 C40.25775869 16.23131962 42.79070378 26.56933641 42.4609375 39.2578125 C41.90644389 48.32180263 38.28687178 56.51007616 31.98828125 63.04296875 C24.30559975 69.44783259 16.27450514 69.88513256 6.6484375 70.00390625 C5.50310547 70.04128906 4.35777344 70.07867187 3.17773438 70.1171875 C2.07623047 70.12878906 0.97472656 70.14039063 -0.16015625 70.15234375 C-1.16747803 70.17216309 -2.1747998 70.19198242 -3.21264648 70.21240234 C-6.96912874 69.40101576 -7.83060673 67.79409078 -9.9140625 64.62890625 C-10.4287262 61.82141113 -10.4287262 61.82141113 -10.44750977 58.72460938 C-10.4633461 57.55990112 -10.47918243 56.39519287 -10.49549866 55.19519043 C-10.49053879 53.94612915 -10.48557892 52.69706787 -10.48046875 51.41015625 C-10.48666733 50.11952271 -10.49286591 48.82888916 -10.49925232 47.49914551 C-10.50963969 44.77219757 -10.50511941 42.04577202 -10.49047852 39.31884766 C-10.4732831 35.83143391 -10.49679997 32.34566667 -10.53196812 28.85843658 C-10.5592592 25.52141325 -10.54920523 22.184786 -10.54296875 18.84765625 C-10.55622696 17.59859497 -10.56948517 16.34953369 -10.58314514 15.06262207 C-10.49076945 6.47810297 -10.49076945 6.47810297 -7.68188477 2.34204102 C-4.79636038 0.5560549 -3.35342635 -0.00294562 0 0 Z " fill="#FE3F96" transform="translate(311.9140625,311.37109375)"/>
<path d="M0 0 C1.82724609 0.02223633 1.82724609 0.02223633 3.69140625 0.04492188 C4.89410156 0.01720703 6.09679687 -0.01050781 7.3359375 -0.0390625 C14.22648342 -0.02015321 18.68354537 0.55737075 23.93676758 5.18164062 C28.60549145 9.99353971 30.58523928 13.24019782 30.56640625 19.98242188 C30.56382813 20.95953125 30.56125 21.93664062 30.55859375 22.94335938 C30.44140625 25.73242188 30.44140625 25.73242188 29.69140625 29.60742188 C29.10617285 32.83777591 29.10617285 32.83777591 31.25390625 35.41992188 C31.97578125 36.18304688 32.69765625 36.94617188 33.44140625 37.73242188 C36.51419195 42.69864947 36.09373553 48.09740725 35.44140625 53.73242188 C33.38556831 60.87795568 29.82968842 64.87736452 23.52734375 68.67382812 C17.67869281 71.64196371 11.4819084 71.03406374 5.06640625 71.10742188 C3.21789062 71.16349609 3.21789062 71.16349609 1.33203125 71.22070312 C-0.45074219 71.23810547 -0.45074219 71.23810547 -2.26953125 71.25585938 C-3.89834229 71.28558838 -3.89834229 71.28558838 -5.56005859 71.31591797 C-8.55859375 70.73242188 -8.55859375 70.73242188 -11.41235352 69.03955078 C-14.84025308 63.75752058 -14.25178948 58.45772668 -14.1875 52.29492188 C-14.18991196 50.98209229 -14.19232391 49.6692627 -14.19480896 48.31665039 C-14.19766206 45.54248979 -14.18301607 42.76913875 -14.15551758 39.99511719 C-14.12143349 36.44732017 -14.12745644 32.90096995 -14.14618015 29.35310364 C-14.15931764 25.95856705 -14.14102739 22.5644484 -14.125 19.16992188 C-14.12995987 17.89898682 -14.13491974 16.62805176 -14.14002991 15.31860352 C-14.12419357 14.13387451 -14.10835724 12.94914551 -14.09204102 11.72851562 C-14.08584244 10.68880615 -14.07964386 9.64909668 -14.07325745 8.57788086 C-12.56215357 0.22332983 -7.24016073 0.06785156 0 0 Z " fill="#E52081" transform="translate(66.55859375,311.267578125)"/>
<path d="M0 0 C1.52608887 -0.00845947 1.52608887 -0.00845947 3.08300781 -0.01708984 C4.20707031 -0.02353516 5.33113281 -0.02998047 6.48925781 -0.03662109 C8.24496094 -0.00761719 8.24496094 -0.00761719 10.03613281 0.02197266 C11.19113281 0.00263672 12.34613281 -0.01669922 13.53613281 -0.03662109 C22.13981085 0.01248666 27.13654622 1.71785745 33.34472656 7.59619141 C34.02728516 8.45664062 34.02728516 8.45664062 34.72363281 9.33447266 C35.19671875 9.91583984 35.66980469 10.49720703 36.15722656 11.09619141 C39.7926686 16.09020693 38.7480473 22.7542635 38.28613281 28.64697266 C36.32051877 35.52662181 29.98003038 39.85104095 24.28613281 43.64697266 C24.86899048 44.26741455 24.86899048 44.26741455 25.46362305 44.90039062 C27.21935797 46.77201824 28.97152865 48.646946 30.72363281 50.52197266 C31.33529297 51.17294922 31.94695312 51.82392578 32.57714844 52.49462891 C33.16044922 53.11982422 33.74375 53.74501953 34.34472656 54.38916016 C34.88411865 54.96520996 35.42351074 55.54125977 35.97924805 56.13476562 C38.06809704 58.55178984 38.29495683 59.74227209 38.59863281 63.02197266 C38.28613281 66.64697266 38.28613281 66.64697266 36.66113281 69.08447266 C33.52929789 71.14489037 31.97068508 71.32372715 28.28613281 70.64697266 C26.51950555 69.02654903 24.90806072 67.40366998 23.28613281 65.64697266 C22.75173584 65.07841553 22.21733887 64.5098584 21.66674805 63.92407227 C19.92776953 62.06808764 18.19946585 60.20268211 16.47363281 58.33447266 C15.87615234 57.68929687 15.27867187 57.04412109 14.66308594 56.37939453 C13.20321853 54.80273773 11.74455188 53.22496927 10.28613281 51.64697266 C10.26486328 53.07589844 10.26486328 53.07589844 10.24316406 54.53369141 C9.80468934 66.06439165 9.80468934 66.06439165 7.09863281 69.02197266 C3.74613309 70.9589725 2.09079413 71.37552482 -1.71386719 70.64697266 C-4.01662275 68.77987355 -5.39210589 67.29049525 -6.71386719 64.64697266 C-6.82527496 62.79480838 -6.8731119 60.93867882 -6.89086914 59.08325195 C-6.90370438 57.91831711 -6.91653961 56.75338226 -6.92976379 55.55314636 C-6.93715073 54.28860123 -6.94453766 53.02405609 -6.95214844 51.72119141 C-6.96022018 50.42631302 -6.96829193 49.13143463 -6.97660828 47.7973175 C-6.9916354 45.0526238 -7.00147309 42.30795599 -7.0090332 39.56323242 C-7.02009042 36.05251497 -7.05448167 32.54243264 -7.0942049 29.03193951 C-7.12668408 25.67838229 -7.13115113 22.32489377 -7.13964844 18.97119141 C-7.15715652 17.71271896 -7.17466461 16.45424652 -7.19270325 15.15763855 C-7.18977768 13.98324722 -7.18685211 12.8088559 -7.18383789 11.59887695 C-7.18970413 10.56788376 -7.19557037 9.53689056 -7.20161438 8.47465515 C-6.43680688 4.0407336 -4.45522268 1.06210328 0 0 Z " fill="#E52280" transform="translate(145.7138671875,311.35302734375)"/>
<path d="M0 0 C3.5 0.5 3.5 0.5 5.703125 1.828125 C8.61456003 6.15730231 7.9162477 10.67282457 7.75 15.75 C7.6675 19.2975 7.585 22.845 7.5 26.5 C15.09 26.5 22.68 26.5 30.5 26.5 C30.34234458 19.81342039 30.34234458 19.81342039 30.13964844 13.12817383 C30.08823512 8.80406472 30.11245173 6.17736698 32.296875 2.359375 C34.5 0.5 34.5 0.5 38 -0.0625 C42.08054492 0.59330186 43.01408255 1.28572563 45.5 4.5 C46.00793457 7.30786133 46.00793457 7.30786133 46.01757812 10.58203125 C46.03018677 11.81010498 46.04279541 13.03817871 46.05578613 14.3034668 C46.04862627 15.63981705 46.04042227 16.97616205 46.03125 18.3125 C46.03394577 19.68725865 46.03782889 21.06201544 46.04284668 22.43676758 C46.04873793 25.31512644 46.04019176 28.19298809 46.02148438 31.07128906 C45.99869389 34.75704016 46.01181913 38.44162622 46.03577423 42.12733459 C46.05024299 44.96529893 46.04562154 47.80298798 46.03526306 50.64096069 C46.0325987 51.99970641 46.03585541 53.35847728 46.04518127 54.7171936 C46.05536241 56.61744699 46.03708729 58.51778824 46.01757812 60.41796875 C46.01280457 62.03868286 46.01280457 62.03868286 46.00793457 63.69213867 C45.37685684 67.18073515 44.27943263 68.36168373 41.5 70.5 C37.64395079 71.2383924 36.09232891 70.89834985 32.828125 68.703125 C29.32384509 63.88180029 29.95945303 59.47504968 30.1875 53.6875 C30.290625 49.995625 30.39375 46.30375 30.5 42.5 C22.91 42.5 15.32 42.5 7.5 42.5 C7.69717552 49.84506037 7.69717552 49.84506037 7.95043945 57.18823242 C8.0527776 64.73946706 8.0527776 64.73946706 5.171875 68.703125 C1.90767109 70.89834985 0.35604921 71.2383924 -3.5 70.5 C-6.27943263 68.36168373 -7.37685684 67.18073515 -8.00793457 63.69213867 C-8.01111694 62.6116626 -8.01429932 61.53118652 -8.01757812 60.41796875 C-8.03649109 58.57585815 -8.03649109 58.57585815 -8.05578613 56.6965332 C-8.04862627 55.36018295 -8.04042227 54.02383795 -8.03125 52.6875 C-8.03394577 51.31274135 -8.03782889 49.93798456 -8.04284668 48.56323242 C-8.04873793 45.68487356 -8.04019176 42.80701191 -8.02148438 39.92871094 C-7.99869389 36.24295984 -8.01181913 32.55837378 -8.03577423 28.87266541 C-8.05024299 26.03470107 -8.04562154 23.19701202 -8.03526306 20.35903931 C-8.0325987 19.00029359 -8.03585541 17.64152272 -8.04518127 16.2828064 C-8.05536241 14.38255301 -8.03708729 12.48221176 -8.01757812 10.58203125 C-8.01439575 9.50155518 -8.01121338 8.4210791 -8.00793457 7.30786133 C-7.12015727 2.4002301 -4.81146801 0.68735257 0 0 Z " fill="#FD4095" transform="translate(246.5,311.5)"/>
<path d="M0 0 C4.06615114 0.65348858 5.00538948 1.37981411 7.5 4.5625 C7.95410156 7.12792969 7.95410156 7.12792969 7.890625 9.984375 C7.88063477 10.90831055 7.87064453 11.83224609 7.86035156 12.78417969 C7.82393555 13.94852539 7.78751953 15.11287109 7.75 16.3125 C7.6675 20.025 7.585 23.7375 7.5 27.5625 C15.42 27.5625 23.34 27.5625 31.5 27.5625 C31.34210651 20.17274383 31.34210651 20.17274383 31.13964844 12.78417969 C31.1296582 11.86024414 31.11966797 10.93630859 31.109375 9.984375 C31.08842773 9.04174805 31.06748047 8.09912109 31.04589844 7.12792969 C31.63714323 3.7877145 32.86626794 2.63160565 35.5 0.5625 C39.29344453 -0.16390427 40.89521876 0.17590321 44.15209961 2.2578125 C48.30656377 6.67837221 47.18787222 13.34750785 47.12890625 19 C47.13131821 20.31282959 47.13373016 21.62565918 47.13621521 22.97827148 C47.13906831 25.75243209 47.12442232 28.52578313 47.09692383 31.29980469 C47.06283974 34.84760171 47.06886269 38.39395193 47.0875864 41.94181824 C47.10072389 45.33635482 47.08243364 48.73047348 47.06640625 52.125 C47.07136612 53.39593506 47.07632599 54.66687012 47.08143616 55.97631836 C47.05768166 57.75341187 47.05768166 57.75341187 47.03344727 59.56640625 C47.02724869 60.60611572 47.02105011 61.6458252 47.0146637 62.71704102 C46.36343374 66.31754392 45.08399672 68.00807374 42.5 70.5625 C39 71.125 39 71.125 35.5 70.5625 C32.7766347 68.474223 31.63045543 67.32587465 31.04589844 63.90527344 C31.0668457 62.92075195 31.08779297 61.93623047 31.109375 60.921875 C31.11936523 59.95733398 31.12935547 58.99279297 31.13964844 57.99902344 C31.19427246 56.17419434 31.19427246 56.17419434 31.25 54.3125 C31.37375 48.49625 31.37375 48.49625 31.5 42.5625 C23.58 42.5625 15.66 42.5625 7.5 42.5625 C7.65791902 50.2813316 7.65791902 50.2813316 7.86035156 57.99902344 C7.87533691 59.44583496 7.87533691 59.44583496 7.890625 60.921875 C7.91157227 61.90639648 7.93251953 62.89091797 7.95410156 63.90527344 C7.36954457 67.32587465 6.2233653 68.474223 3.5 70.5625 C0 71.125 0 71.125 -3.5 70.5625 C-6.08602599 68.00722737 -7.36453046 66.32140293 -8.00793457 62.71704102 C-8.01111694 61.67733154 -8.01429932 60.63762207 -8.01757812 59.56640625 C-8.03018677 58.38167725 -8.04279541 57.19694824 -8.05578613 55.97631836 C-8.04768921 54.7053833 -8.03959229 53.43444824 -8.03125 52.125 C-8.0350769 50.81217041 -8.03890381 49.49934082 -8.04284668 48.14672852 C-8.04873166 45.37269185 -8.04021219 42.59917174 -8.02148438 39.82519531 C-7.99869409 36.27743919 -8.01182273 32.73089352 -8.03577423 29.18318176 C-8.05374135 25.78869196 -8.04114505 22.39452415 -8.03125 19 C-8.03934692 17.72906494 -8.04744385 16.45812988 -8.05578613 15.14868164 C-8.04317749 13.96395264 -8.03056885 12.77922363 -8.01757812 11.55859375 C-8.01439575 10.51888428 -8.01121338 9.4791748 -8.00793457 8.40795898 C-7.11162069 3.38679184 -5.03548387 0.80927419 0 0 Z " fill="#56D0F7" transform="translate(123.5,209.4375)"/>
<path d="M0 0 C2.46860787 0.92442294 3.70392059 1.52592888 5.11346436 3.78283691 C5.54214813 4.85422913 5.54214813 4.85422913 5.97949219 5.94726562 C6.31025757 6.75526611 6.64102295 7.5632666 6.98181152 8.39575195 C7.31781372 9.25515381 7.65381592 10.11455566 8 11 C8.34341431 11.84457764 8.68682861 12.68915527 9.04064941 13.55932617 C11.41889323 19.43697422 13.70180413 25.35281455 15.9921875 31.26513672 C16.83167319 33.42414008 17.67739733 35.58072798 18.52929688 37.73486328 C19.76857582 40.86981892 20.98781227 44.01193819 22.203125 47.15625 C22.58430481 48.10963257 22.96548462 49.06301514 23.35821533 50.04528809 C25.44711064 55.52356769 27.33737769 61.10267543 26 67 C24.71954346 68.7154541 24.71954346 68.7154541 23 70 C17.87953556 70.73149492 17.87953556 70.73149492 15 70 C12.45175192 67.05971376 11.22394754 64.67184262 10 61 C-2.87 60.505 -2.87 60.505 -16 60 C-16.66 62.31 -17.32 64.62 -18 67 C-19.1875 68.9375 -19.1875 68.9375 -21 70 C-24.89504791 70.49573337 -27.09493717 70.58016848 -30.4375 68.4375 C-32.50771289 65.20796789 -32.51455884 62.69290824 -32 59 C-30.88082496 55.10577345 -29.42410664 51.36152484 -27.94921875 47.58984375 C-27.53460892 46.50417618 -27.11999908 45.41850861 -26.69282532 44.29994202 C-25.8163341 42.01095177 -24.93430928 39.72407372 -24.04711914 37.43920898 C-22.69240138 33.95012353 -21.35350199 30.45530343 -20.01757812 26.95898438 C-19.16237219 24.73141977 -18.30628187 22.50419446 -17.44921875 20.27734375 C-17.0491008 19.23658188 -16.64898285 18.19582001 -16.23674011 17.1235199 C-9.20759541 -0.95912452 -9.20759541 -0.95912452 0 0 Z " fill="#56D1F7" transform="translate(209,210)"/>
<path d="M0 0 C3.00434566 1.79634834 5.40783628 3.81567256 7 7 C7.54770178 13.46288097 6.61528608 16.63184794 3 22 C2.67 22.33 2.34 22.66 2 23 C2.25108454 28.81081369 4.12612058 32.08921463 7.8125 36.375 C15.39670778 45.68795117 19.2314192 54.80721552 18 67 C16.19776868 74.32220838 12.73662791 83.98402468 6.0859375 88.21875 C2.38439408 89.60509585 -1.12045134 89.65891814 -5 89 C-8.3887382 87.26622697 -10.49976311 84.88678357 -12.375 81.5625 C-13.35298639 77.5527558 -13.88381514 74.63326649 -11.84375 70.86328125 C-10.92946206 69.36740459 -9.9814748 67.89143852 -8.99609375 66.44140625 C-7.53089531 62.8502336 -8.00020506 60.72939381 -9 57 C-10.54245842 54.3706721 -12.39758277 52.05391182 -14.3125 49.6875 C-21.33771207 40.51603997 -25.34126096 32.85608456 -24 21 C-22.54450957 12.19488436 -19.49833127 5.29877627 -12.1875 -0.0625 C-7.85642624 -1.33634522 -4.33141207 -1.29168896 0 0 Z " fill="#FBEE56" transform="translate(278,11)"/>
<path d="M0 0 C2.95016532 0.66817564 4.05972998 2.20440593 6.03515625 4.4609375 C7.26872253 6.94058228 7.26872253 6.94058228 8.30932617 9.74853516 C8.7062114 10.8028775 9.10309662 11.85721985 9.51200867 12.94351196 C9.92570206 14.07590302 10.33939545 15.20829407 10.765625 16.375 C11.20151443 17.54098724 11.63740387 18.70697449 12.08650208 19.90829468 C13.23975867 22.99863801 14.38360124 26.09224629 15.52276611 29.18780518 C16.68560156 32.34146521 17.85956956 35.49097087 19.03320312 38.640625 C20.35099976 42.17778363 21.66726554 45.7154171 22.97514343 49.2562561 C23.36257217 50.30429413 23.75000092 51.35233215 24.14916992 52.43212891 C24.49018234 53.35716217 24.83119476 54.28219543 25.18254089 55.23526001 C25.99082653 57.45365722 25.99082653 57.45365722 27.03515625 59.4609375 C27.57274466 63.49285055 27.34275585 65.0228411 24.97265625 68.3984375 C22.03515625 70.4609375 22.03515625 70.4609375 18.41015625 70.5234375 C14.71165894 69.35909576 13.80663231 68.81741846 12.03515625 65.4609375 C10.66266012 62.49923532 10.03515625 60.74812859 10.03515625 57.4609375 C1.78515625 57.4609375 -6.46484375 57.4609375 -14.96484375 57.4609375 C-15.29484375 59.4409375 -15.62484375 61.4209375 -15.96484375 63.4609375 C-19.0124628 68.50855655 -19.0124628 68.50855655 -20.96484375 70.4609375 C-24.27734375 70.8359375 -24.27734375 70.8359375 -27.96484375 70.4609375 C-30.46484375 68.4609375 -30.46484375 68.4609375 -31.96484375 65.4609375 C-31.65082181 58.68521975 -29.5240558 52.95522431 -27.0703125 46.6796875 C-26.68168533 45.66676636 -26.29305817 44.65384521 -25.89265442 43.61022949 C-25.07225738 41.47728142 -24.24752249 39.34599731 -23.41870117 37.21630859 C-22.15774253 33.97481592 -20.91077844 30.72821055 -19.66601562 27.48046875 C-18.86410002 25.40072578 -18.06139175 23.32128823 -17.2578125 21.2421875 C-16.88786667 20.28050659 -16.51792084 19.31882568 -16.13676453 18.32800293 C-9.13656422 0.38729174 -9.13656422 0.38729174 0 0 Z " fill="#FE4096" transform="translate(386.96484375,311.5390625)"/>
<path d="M0 0 C0.96276855 -0.00563965 1.92553711 -0.0112793 2.91748047 -0.01708984 C4.52236328 -0.02675781 4.52236328 -0.02675781 6.15966797 -0.03662109 C7.83029297 -0.00761719 7.83029297 -0.00761719 9.53466797 0.02197266 C10.62521484 0.00263672 11.71576172 -0.01669922 12.83935547 -0.03662109 C20.31793933 0.00810728 26.22511963 1.29175933 32.40966797 5.64697266 C37.39282751 10.88355571 40.40608422 16.06224566 40.84716797 23.33447266 C40.67654926 30.06889343 38.30793809 35.76655636 33.50732422 40.53759766 C27.56957677 45.23309084 22.1366068 46.92711427 14.53466797 46.77197266 C13.38224609 46.75392578 12.22982422 46.73587891 11.04248047 46.71728516 C9.73923828 46.68248047 9.73923828 46.68248047 8.40966797 46.64697266 C8.43061523 47.23188477 8.4515625 47.81679688 8.47314453 48.41943359 C8.55646912 51.07843731 8.60837694 53.73716621 8.65966797 56.39697266 C8.70994141 57.77755859 8.70994141 57.77755859 8.76123047 59.18603516 C8.85989863 65.9941382 8.85989863 65.9941382 6.61279297 69.25244141 C3.34130216 71.32322548 1.19216527 71.25487401 -2.59033203 70.64697266 C-5.17635802 68.09170003 -6.45486249 66.40587558 -7.0982666 62.80151367 C-7.10144897 61.7618042 -7.10463135 60.72209473 -7.10791016 59.65087891 C-7.1205188 58.4661499 -7.13312744 57.2814209 -7.14611816 56.06079102 C-7.13802124 54.78985596 -7.12992432 53.5189209 -7.12158203 52.20947266 C-7.12540894 50.89664307 -7.12923584 49.58381348 -7.13317871 48.23120117 C-7.13906369 45.45716451 -7.13054422 42.6836444 -7.11181641 39.90966797 C-7.08902612 36.36191185 -7.10215476 32.81536618 -7.12610626 29.26765442 C-7.14407339 25.87316462 -7.13147708 22.47899681 -7.12158203 19.08447266 C-7.12967896 17.8135376 -7.13777588 16.54260254 -7.14611816 15.2331543 C-7.13350952 14.04842529 -7.12090088 12.86369629 -7.10791016 11.64306641 C-7.10472778 10.60335693 -7.10154541 9.56364746 -7.0982666 8.49243164 C-6.32258834 4.14706746 -4.38116807 1.0942597 0 0 Z " fill="#57D1F7" transform="translate(247.59033203125,209.35302734375)"/>
<path d="M0 0 C1.07894531 -0.00515625 2.15789062 -0.0103125 3.26953125 -0.015625 C4.39230469 -0.00015625 5.51507813 0.0153125 6.671875 0.03125 C7.77917969 0.01578125 8.88648438 0.0003125 10.02734375 -0.015625 C18.02014963 0.02239072 23.56022151 1.20780605 29.6640625 6.4609375 C34.95778661 12.76781455 36.90434281 17.72932528 36.65625 26.015625 C35.92417278 33.87325383 32.6839602 37.76910778 26.7734375 42.8671875 C21.8827305 46.32805325 18.06449247 46.76756061 12.109375 46.65625 C10.22798828 46.62917969 10.22798828 46.62917969 8.30859375 46.6015625 C6.87966797 46.56675781 6.87966797 46.56675781 5.421875 46.53125 C5.46828125 47.84480469 5.5146875 49.15835938 5.5625 50.51171875 C5.60002766 52.24737304 5.63642675 53.98305199 5.671875 55.71875 C5.70539063 56.58306641 5.73890625 57.44738281 5.7734375 58.33789062 C5.83781571 62.53856882 5.78301697 64.91259811 3.625 68.609375 C1.421875 70.53125 1.421875 70.53125 -2.078125 71.09375 C-6.15866992 70.43794814 -7.09220755 69.74552437 -9.578125 66.53125 C-10.08605957 63.72338867 -10.08605957 63.72338867 -10.09570312 60.44921875 C-10.11461609 58.60710815 -10.11461609 58.60710815 -10.13391113 56.7277832 C-10.12675127 55.39143295 -10.11854727 54.05508795 -10.109375 52.71875 C-10.11207077 51.34399135 -10.11595389 49.96923456 -10.12097168 48.59448242 C-10.12686293 45.71612356 -10.11831676 42.83826191 -10.09960938 39.95996094 C-10.07681889 36.27420984 -10.08994413 32.58962378 -10.11389923 28.90391541 C-10.12836799 26.06595107 -10.12374654 23.22826202 -10.11338806 20.39028931 C-10.1107237 19.03154359 -10.11398041 17.67277272 -10.12330627 16.3140564 C-10.13348741 14.41380301 -10.11521229 12.51346176 -10.09570312 10.61328125 C-10.09252075 9.53280518 -10.08933838 8.4523291 -10.08605957 7.33911133 C-9.03541596 1.53115549 -5.49074421 0.02539492 0 0 Z " fill="#57D2F8" transform="translate(305.578125,209.46875)"/>
<path d="M0 0 C24.75 0 49.5 0 75 0 C72.43704364 2.56295636 70.28296839 4.66037644 67.453125 6.77734375 C66.78120117 7.28418701 66.10927734 7.79103027 65.41699219 8.31323242 C64.70188477 8.84924072 63.98677734 9.38524902 63.25 9.9375 C57.3277901 14.41739812 51.49283639 18.97983195 45.75 23.6875 C39.9950422 28.40151841 34.17269361 32.99875286 28.25 37.5 C25.86617032 39.31877376 23.52106468 41.17968423 21.1875 43.0625 C20.55150879 43.57280762 19.91551758 44.08311523 19.26025391 44.60888672 C18.02858471 45.59938991 16.80146713 46.59558707 15.57958984 47.59814453 C11.33436028 51 11.33436028 51 8 51 C2.35002168 45.20877222 -0.34328298 39.47080309 -0.33947754 31.38171387 C-0.32412964 30.59703735 -0.30878174 29.81236084 -0.29296875 29.00390625 C-0.28994751 28.26394409 -0.28692627 27.52398193 -0.28381348 26.76159668 C-0.26825619 24.02842017 -0.22637333 21.29544433 -0.1875 18.5625 C-0.125625 12.436875 -0.06375 6.31125 0 0 Z " fill="#FDA43D" transform="translate(386,398)"/>
<path d="M0 0 C24.42 0 48.84 0 74 0 C74.103125 6.06375 74.20625 12.1275 74.3125 18.375 C74.35802002 20.26782715 74.40354004 22.1606543 74.45043945 24.11083984 C74.6889134 40.85181979 74.6889134 40.85181979 69 48 C66.1875 50.625 66.1875 50.625 64 52 C63.33097656 51.42894531 62.66195312 50.85789062 61.97265625 50.26953125 C56.01712573 45.24130481 49.96321715 40.39407408 43.75 35.6875 C37.31279048 30.81071681 31.0068223 25.80167291 24.76123047 20.68237305 C19.54521587 16.41596729 14.23600095 12.29068124 8.8671875 8.21875 C5.84188732 5.87764577 2.89110838 3.50505533 0 1 C0 0.67 0 0.34 0 0 Z " fill="#FB753F" transform="translate(52,398)"/>
<path d="M0 0 C4.15202476 3.60249207 6.95167205 7.69043021 9.8125 12.3125 C10.42254883 13.28026367 10.42254883 13.28026367 11.04492188 14.26757812 C12.0358257 15.84136655 13.01875372 17.42017212 14 19 C17.28726741 15.9480627 19.63991745 12.70440582 22.0625 8.9375 C26.53209628 1.99718639 26.53209628 1.99718639 29 0 C33.0561602 -0.70541917 34.54252512 -0.32120577 37.9375 2.0625 C40 5 40 5 39.921875 8.22265625 C38.82240004 12.72770833 36.98191468 15.64951032 34.3125 19.375 C33.00822472 21.25474941 31.70495404 23.13470558 30.4140625 25.02368164 C29 27 29 27 27.3515625 28.94311523 C21.87107666 35.8628795 22.22792501 42.7954283 22.375 51.3125 C22.40677685 53.99732602 22.4090888 56.67782169 22.3984375 59.36328125 C22.42429932 61.13119019 22.42429932 61.13119019 22.45068359 62.93481445 C22 66 22 66 20.19384766 68.37963867 C18 70 18 70 14.5 70.5625 C11 70 11 70 8.78857422 67.84350586 C6.66464437 64.46684589 6.62688783 62.8791976 6.8828125 58.94140625 C7.49129364 40.99549774 4.68420989 30.06709311 -6.50366211 15.89990234 C-9.59844826 11.97044798 -10.45596642 9.75285822 -10.3125 4.875 C-10 3 -10 3 -8.375 1 C-5.24440659 -0.3181446 -3.3696628 -0.55014903 0 0 Z " fill="#56D1F7" transform="translate(356,210)"/>
<path d="M0 0 C4.17239534 3.56770037 6.9560795 7.69755108 9.8125 12.3125 C10.42254883 13.28026367 10.42254883 13.28026367 11.04492188 14.26757812 C12.0358257 15.84136655 13.01875372 17.42017212 14 19 C17.56716899 14.66727419 20.70198782 10.12194956 23.8203125 5.46484375 C26.78546929 1.10726535 26.78546929 1.10726535 29 0 C33.0713696 -0.54284928 34.5591694 -0.31889873 37.9375 2.125 C40 5 40 5 39.8515625 7.86499023 C38.90875981 11.33589887 37.66174195 13.22792133 35.4375 16.03515625 C24.42054529 30.85033252 21.2872085 40.37299105 22.14453125 59.046875 C22.29790996 64.42448711 22.29790996 64.42448711 21.01147461 66.90966797 C18.81757305 69.22270096 17.04714994 69.99037756 13.9375 70.625 C11 70 11 70 8.82373047 67.83959961 C6.65434013 64.46179786 6.62542908 62.90164267 6.8828125 58.94140625 C7.48910244 41.09846378 4.77565606 30.19017829 -6.39013672 16.12695312 C-11.03937498 9.98437446 -11.03937498 9.98437446 -10.875 5.875 C-9.03047268 -0.18558977 -6.21190867 -0.85681499 0 0 Z " fill="#FE3F97" transform="translate(419,312)"/>
<path d="M0 0 C18.14788886 56.32159265 18.14788886 56.32159265 12.6875 69.0625 C10.679714 71.36773578 8.9909902 72.84040233 5.9140625 73.3359375 C1.88827601 73.40463693 -0.40531432 73.35428083 -3.9375 71.25 C-7.03793445 67.86770787 -8.18694248 64.88919203 -8.859375 60.38671875 C-9.0025415 59.47946045 -9.14570801 58.57220215 -9.29321289 57.63745117 C-9.51932251 56.17722534 -9.51932251 56.17722534 -9.75 54.6875 C-12.17896783 39.8666593 -15.92161192 25.4190395 -20.44702148 11.10473633 C-21 9 -21 9 -21 6 C-17.87647773 4.99534271 -14.75095147 3.99707073 -11.625 3 C-10.73554688 2.71382812 -9.84609375 2.42765625 -8.9296875 2.1328125 C-7.65351563 1.72675781 -7.65351563 1.72675781 -6.3515625 1.3125 C-5.56604004 1.06113281 -4.78051758 0.80976563 -3.97119141 0.55078125 C-2 0 -2 0 0 0 Z " fill="#4F6FB5" transform="translate(453,203)"/>
<path d="M0 0 C0.58265625 0.18175781 1.1653125 0.36351562 1.765625 0.55078125 C8.45691206 2.60235511 15.19880965 4.35228894 22 6 C21.63648438 7.15371094 21.27296875 8.30742187 20.8984375 9.49609375 C15.86789855 25.71198542 10.90891174 42.29175947 8.875 59.1875 C8.26152251 64.23784499 7.45566562 67.23018296 4 71 C-0.00254616 73.66836411 -3.29313299 73.8340238 -8 73 C-10.75569447 70.81840855 -12.43588747 69.12822506 -14 66 C-14.73037653 57.68282542 -13.25764435 49.8928979 -11.4375 41.8125 C-11.04075073 40.0037439 -11.04075073 40.0037439 -10.63598633 38.15844727 C-7.73581444 25.27095085 -4.17776107 12.53328322 0 0 Z " fill="#4F70B6" transform="translate(59,203)"/>
<path d="M0 0 C1.24245483 -0.00574036 1.24245483 -0.00574036 2.51000977 -0.01159668 C4.25831317 -0.01431425 6.00665734 -0.00696381 7.75488281 0.00976562 C10.42865777 0.03117918 13.09974596 0.00996056 15.7734375 -0.015625 C17.47396425 -0.01298169 19.17448934 -0.00785665 20.875 0 C22.07201538 -0.01214539 22.07201538 -0.01214539 23.29321289 -0.02453613 C26.86587418 0.03572052 29.03123743 0.24155354 31.9765625 2.34179688 C33.4375 4.53125 33.4375 4.53125 33.375 8.09375 C32.14270231 12.61217486 32.14270231 12.61217486 29.4375 14.53125 C26.51953125 14.82421875 26.51953125 14.82421875 23.25 14.71875 C22.16332031 14.69167969 21.07664063 14.66460937 19.95703125 14.63671875 C18.70986328 14.58451172 18.70986328 14.58451172 17.4375 14.53125 C17.44638245 15.17382751 17.45526489 15.81640503 17.4644165 16.47845459 C17.55285648 23.16165275 17.61322054 29.8446849 17.65722656 36.52832031 C17.67735164 39.02318065 17.70465452 41.51799378 17.73925781 44.01269531 C17.78773457 47.59712368 17.8104602 51.18092885 17.828125 54.765625 C17.84877014 55.88241638 17.86941528 56.99920776 17.89068604 58.14984131 C17.89098816 59.19061829 17.89129028 60.23139526 17.89160156 61.30371094 C17.90048401 62.21860291 17.90936646 63.13349487 17.91851807 64.07611084 C17.2830126 67.31976106 15.99519023 68.50377111 13.4375 70.53125 C10.5 71.09375 10.5 71.09375 7.4375 70.53125 C4.77661133 68.71020508 4.77661133 68.71020508 2.4375 65.53125 C1.74228526 61.71822663 1.85582537 57.9701322 1.94921875 54.10546875 C1.95983086 52.45137749 1.95983086 52.45137749 1.97065735 50.76387024 C1.99860511 47.24813483 2.06134835 43.73400257 2.125 40.21875 C2.15008219 37.83270532 2.17289549 35.44663563 2.19335938 33.06054688 C2.24843308 27.21690263 2.33206455 21.37419085 2.4375 15.53125 C1.53257812 15.56605469 1.53257812 15.56605469 0.609375 15.6015625 C-0.58945313 15.62863281 -0.58945313 15.62863281 -1.8125 15.65625 C-2.60140625 15.67945313 -3.3903125 15.70265625 -4.203125 15.7265625 C-6.83898974 15.50836178 -8.34698383 14.96092069 -10.5625 13.53125 C-12.88999345 10.04000983 -13.06549316 8.63902749 -12.5625 4.53125 C-9.2721249 -0.2402257 -5.35552467 -0.05433925 0 0 Z " fill="#FE4195" transform="translate(199.5625,311.46875)"/>
<path d="M0 0 C5.54585151 3.6016564 7.2649131 6.95357078 8.875 13.25 C9.07988037 14.00635742 9.28476074 14.76271484 9.49584961 15.54199219 C10.8659499 20.8489196 11.82218924 25.51873837 11 31 C8.08716544 35.75328227 4.7308286 37.24446537 -0.4375 38.75 C-1.09298828 38.95753906 -1.74847656 39.16507813 -2.42382812 39.37890625 C-8.32503107 41.2137838 -13.7969031 42.55384794 -20 42 C-25.51583785 38.83461249 -26.62685966 34.52298459 -28.3125 28.75 C-28.57611328 27.92886719 -28.83972656 27.10773438 -29.11132812 26.26171875 C-30.9430379 20.25751684 -32.51100097 14.16590679 -29.6875 8.25 C-25.61162563 4.83764006 -21.02695077 3.55613169 -16 2 C-14.80375 1.5875 -13.6075 1.175 -12.375 0.75 C-8.25205302 -0.16621044 -4.15366276 -1.00503177 0 0 Z " fill="#93D876" transform="translate(234,134)"/>
<path d="M0 0 C1.03640625 0.49371094 2.0728125 0.98742187 3.140625 1.49609375 C4.5103271 2.14341872 5.88012375 2.79054366 7.25 3.4375 C7.93191406 3.76298828 8.61382812 4.08847656 9.31640625 4.42382812 C9.98027344 4.73642578 10.64414063 5.04902344 11.328125 5.37109375 C11.9355957 5.65911865 12.54306641 5.94714355 13.16894531 6.24389648 C16.61323372 7.66615798 19.83930335 8.14104813 23.546875 8.31640625 C24.39121094 8.35830078 25.23554687 8.40019531 26.10546875 8.44335938 C27.41451172 8.50233398 27.41451172 8.50233398 28.75 8.5625 C29.63816406 8.60568359 30.52632812 8.64886719 31.44140625 8.69335938 C33.62745963 8.79913615 35.81362089 8.90122546 38 9 C38 9.33 38 9.66 38 10 C35.03 10 32.06 10 29 10 C29.33 11.051875 29.66 12.10375 30 13.1875 C31.72675823 20.15664651 32.09235164 27.72294507 29.8125 34.5625 C27.73491092 37.35649911 25.98944316 39.19242972 23 41 C17.37408745 41.60308404 12.43380399 39.89075963 7.125 38.25 C6.26519531 37.99734375 5.40539062 37.7446875 4.51953125 37.484375 C-9.52270557 33.22269463 -9.52270557 33.22269463 -14 28 C-15.27053585 24.18839245 -15.83241188 20.93007577 -15 17 C-13.04105042 13.64827124 -10.62093368 10.85203805 -8 8 C-7.42894531 7.37222656 -6.85789062 6.74445313 -6.26953125 6.09765625 C-4.90871108 4.66963508 -3.46112833 3.32520941 -2 2 C-1.34 2 -0.68 2 0 2 C0 1.34 0 0.68 0 0 Z " fill="#1D8BF0" transform="translate(66,170)"/>
<path d="M0 0 C12.63157895 10.26315789 12.63157895 10.26315789 16 17 C16.25909672 20.951225 16.34835953 23.93003859 15.125 27.6875 C9.41388948 33.90253204 0.63995218 35.92227945 -7.1875 38.375 C-8.0427124 38.65013428 -8.8979248 38.92526855 -9.77905273 39.20874023 C-14.85001918 40.72604116 -18.75030644 41.45118918 -24 40 C-26.71243111 37.91398235 -28.47040746 35.05918508 -30 32 C-30.42936942 24.39117444 -30.32971455 17.28035798 -28 10 C-30.64 10 -33.28 10 -36 10 C-36 9.67 -36 9.34 -36 9 C-34.27716797 8.97873047 -34.27716797 8.97873047 -32.51953125 8.95703125 C-20.18143036 8.63995232 -10.66104492 6.64130667 0 0 Z " fill="#FA3D96" transform="translate(445,170)"/>
<path d="M0 0 C5.45493077 0.25225113 5.45493077 0.25225113 7.6856842 1.74623108 C9.52785087 4.40691386 9.35309114 6.43487347 9.36889648 9.65405273 C9.38158066 10.90222275 9.39426483 12.15039276 9.40733337 13.43638611 C9.40528185 14.80004034 9.40229375 16.16369343 9.3984375 17.52734375 C9.40299851 18.92595168 9.40830384 20.32455737 9.4143219 21.72315979 C9.42325758 24.65448103 9.42082523 27.58552992 9.41088867 30.5168457 C9.3994023 34.27095905 9.41960154 38.02413131 9.44880581 41.77812099 C9.46716517 44.66667134 9.46687593 47.5549961 9.46116829 50.44359016 C9.46101502 51.82746767 9.46706445 53.21136042 9.47945976 54.59518242 C9.49435853 56.53141998 9.4810684 58.46781226 9.46655273 60.40405273 C9.46630348 62.05593849 9.46630348 62.05593849 9.46604919 63.74119568 C8.84679504 67.26561091 7.77489572 68.44165928 4.96484375 70.59375 C1.17139922 71.32015427 -0.43037501 70.98034679 -3.68725586 68.8984375 C-7.84172002 64.47787779 -6.72302847 57.80874215 -6.6640625 52.15625 C-6.66647446 50.84342041 -6.66888641 49.53059082 -6.67137146 48.17797852 C-6.67422456 45.40381791 -6.65957857 42.63046687 -6.63208008 39.85644531 C-6.59799599 36.30864829 -6.60401894 32.76229807 -6.62274265 29.21443176 C-6.63588014 25.81989518 -6.61758989 22.42577652 -6.6015625 19.03125 C-6.60652237 17.76031494 -6.61148224 16.48937988 -6.61659241 15.17993164 C-6.60075607 13.99520264 -6.58491974 12.81047363 -6.56860352 11.58984375 C-6.56240494 10.55013428 -6.55620636 9.5104248 -6.54981995 8.43920898 C-5.83786704 4.50298268 -4.01011861 1.16993864 0 0 Z " fill="#E5237F" transform="translate(117.03515625,311.40625)"/>
<path d="M0 0 C12.68421053 0 12.68421053 0 17 4 C22.57145864 11.37841819 22.72920002 17.96990659 22 27 C20.79610344 31.14190318 19.07051636 33.99436342 15.9375 36.9375 C10.28305643 40.03832389 7.5691815 39 0 39 C0 26.13 0 13.26 0 0 Z " fill="#FDEE57" transform="translate(317,327)"/>
<path d="M0 0 C13.19773232 -0.49337317 13.19773232 -0.49337317 16.921875 1.796875 C19 4 19 4 19.5625 7.5 C18.90163949 11.61202097 18.31601741 12.56719616 15 15 C12.2317375 15.29449601 9.98597978 15.38343363 7.25 15.25 C4.8575 15.1675 2.465 15.085 0 15 C0 10.05 0 5.1 0 0 Z " fill="#FDBB44" transform="translate(68,352)"/>
<path d="M0 0 C10.06700594 -0.48515691 10.06700594 -0.48515691 14.125 1.625 C16.45756738 4.57958535 17.07695668 6.22912279 17 10 C15.22960551 12.74716387 13.93708156 14.53145922 11 16 C7.32984725 16.1377685 3.67388652 16.04271961 0 16 C0 10.72 0 5.44 0 0 Z " fill="#1F357E" transform="translate(256,225)"/>
<path d="M0 0 C10.08839779 -0.60773481 10.08839779 -0.60773481 14.1875 2.125 C16.34663968 5.54984225 16.82630866 7.03371841 16 11 C14.1875 13.875 14.1875 13.875 11 16 C7.22851721 16.41846508 3.81542502 16.22984488 0 16 C0 10.72 0 5.44 0 0 Z " fill="#1D2F7A" transform="translate(311,225)"/>
<path d="M0 0 C10.47610182 -0.36974477 10.47610182 -0.36974477 12.83203125 1.29296875 C14.78547961 4.14800867 14.35745403 6.66376235 14 10 C12.83203125 11.70703125 12.83203125 11.70703125 11 13 C7.29631297 13.40199208 3.73655831 13.13187853 0 13 C0 8.71 0 4.42 0 0 Z " fill="#FEC042" transform="translate(155,327)"/>
<path d="M0 0 C1.5675 -0.061875 3.135 -0.12375 4.75 -0.1875 C6.07257813 -0.23970703 6.07257813 -0.23970703 7.421875 -0.29296875 C10.50128613 0.05696433 11.81194139 0.83210783 14 3 C14.375 6.0625 14.375 6.0625 14 9 C12 11 12 11 9.1796875 11.1953125 C8.08914062 11.17210937 6.99859375 11.14890625 5.875 11.125 C4.77929688 11.10695313 3.68359375 11.08890625 2.5546875 11.0703125 C1.71164063 11.04710937 0.86859375 11.02390625 0 11 C0 7.37 0 3.74 0 0 Z " fill="#FCB546" transform="translate(68,326)"/>
<path d="M0 0 C2.61943903 2.61943903 3.44197838 5.57473973 4.625 9 C4.85445312 9.64195312 5.08390625 10.28390625 5.3203125 10.9453125 C7 15.72442336 7 15.72442336 7 18 C2.38 18 -2.24 18 -7 18 C-5.02989474 11.79416842 -2.74844552 5.90148454 0 0 Z " fill="#213982" transform="translate(206,237)"/>
<path d="M0 0 C2.91308822 1.45654411 3.05452316 3.35387648 4.125 6.375 C4.47820312 7.35210937 4.83140625 8.32921875 5.1953125 9.3359375 C6 12 6 12 6 15 C2.37 15 -1.26 15 -5 15 C-4.43174347 9.45949887 -2.37113483 4.96284034 0 0 Z " fill="#FEDE5C" transform="translate(384,339)"/>
</svg>
